<?xml version="1.0" encoding="utf-8"?>
<!-- Generator: Adobe Illustrator 25.0.0, SVG Export Plug-In . SVG Version: 6.00 Build 0)  -->
<svg version="1.1" id="レイヤー_1" xmlns="http://www.w3.org/2000/svg" xmlns:xlink="http://www.w3.org/1999/xlink" x="0px"
	 y="0px" viewBox="0 0 248.6 54.4" style="enable-background:new 0 0 248.6 54.4;" xml:space="preserve">
<style type="text/css">
	.st0{fill:#4DB5C5;}
	.st1{fill:#FFF3A3;}
	.st2{fill:#E9AEB2;}
	.st3{fill:#DA4649;}
	.st4{fill:#CBDCAB;}
	.st5{fill:#F8CBD9;}
	.st6{fill:#040000;}
	.st7{fill:#FCE9F2;}
</style>
<polygon class="st0" points="36.4,30.2 45.2,27.3 42.6,36.3 "/>
<polygon class="st1" points="49.6,26.2 57.7,30.8 49.2,34.9 "/>
<polygon class="st2" points="59.9,32.6 66.4,26 68.2,35.3 "/>
<polygon class="st3" points="71.1,28.5 80.3,28.5 75,36.3 "/>
<polygon class="st4" points="82.7,32.3 89.7,26.2 90.7,35.5 "/>
<g>
	<path class="st5" d="M52.9,22.3c0.3,0.3,1.1,0.6,1.7,0.7c-0.4,0.3-1.1,0.8-1.5,0.8c-0.1,0-0.1,0-0.1-0.1s-0.1-0.1-0.2,0
		c-0.1,0-0.1,0.1,0,0.2l0,0c0.2,0.3,0.5,0.5,0.9,0.5s0.8-0.2,1-0.3c-0.2,0.6-0.4,1.3-1.1,1.6l-0.1,0.1c0,0.1,0,0.1,0.1,0.1
		c0.3,0,0.5,0,0.7-0.2c0,0.1,0.1,0.3,0.2,0.5c0.1,0.2,0.2,0.4,0.2,0.5c-0.1,0.3-0.8,0.5-1.1,0.5c-0.1,0-0.1,0.1-0.1,0.1
		c0,0.1,0,0.1,0.1,0.1c0.7,0.1,1.3,0,1.7-0.3c-0.2,0.6-0.4,1.3-1,1.6l-0.1,0.1c0,0.1,0.1,0.1,0.1,0.1c0.4,0,0.7-0.1,0.9-0.4
		c-0.1,0.7,0.1,1.4,0.7,1.9H56c0.1,0,0.1-0.1,0.1-0.1v-0.1l0,0c-0.3-0.7-0.4-0.9-0.1-1.3c0.1,0.1,0.2,0.3,0.4,0.5
		c0.4,0.5,0.9,1.2,0.8,1.6c0,0.1,0,0.2,0,0.3c0,0.5,0,0.8-0.7,1.1l-0.1,0.1c0,0.1,0.1,0.1,0.1,0.1c0.3,0,0.6-0.1,0.8-0.4
		c0.2-0.2,0.4-0.6,0.4-0.9c0.5,1,0.7,2-0.3,2.7l-0.1,0.1c0,0,0,0.1,0.1,0.1c0.2,0,0.8-0.3,1.1-0.7c0,0.4-0.1,0.6-0.1,0.7
		c-0.1,0.2-0.7,1.3-1.6,1.3c-0.1,0-0.1,0.1-0.1,0.1c0,0.1,0,0.1,0.1,0.1c0.3,0,0.7-0.1,1.1-0.2c-0.5,0.7-0.7,1-0.8,1.2
		c0,0,0,0.1,0,0.2c0,0,0.1,0,0.2,0c0.4-0.4,0.8-0.7,1-0.9c-0.1,0.5-0.2,1.2-0.3,1.3c-0.3,0.2-1.1,0.6-1.2,0.7
		c-0.2,0.1-0.3,0.3-0.3,0.4c0,0.1,0,0.3,0.1,0.5c0.1,0.1,0.3,0.2,0.7,0.2c0.5,0,1.1-0.2,1.2-0.2c0,0,0,0,0.1,0c0,0,1-1.3,1.6-1.7
		c0.2-0.1,0.3-0.2,0.3-0.2l0,0c0,0.1,0.1,0.1,0.1,0.2h0.1l0,0c0.1,0,0.1-0.1,0.1-0.1l0,0c0-0.2,0-0.4,0-0.5s0-0.2,0-0.3
		c0.1,0.3,0.1,0.4,0.4,0.5l0,0l0,0l0,0c0.1,0,0.1,0,0.2-0.1v-0.1c0,0,0,0,0-0.1l0,0C61.1,37,61,36.4,61,35.8
		c0.1,0.3,0.3,0.6,0.5,0.7c0,0,0,0,0.1,0s0.1-0.1,0.1-0.1v-0.1c-0.3-0.4-0.4-1.6-0.1-2.1c0.6,0.8,0.7,1.8,0.3,2.4c0,0.1,0,0.1,0,0.2
		c0,0,0.1,0,0.2,0c0.2-0.2,0.4-0.4,0.5-0.7c0.1,0.3,0.2,0.6,0.1,0.8l0,0c0,0.1,0,0.1,0,0.2c0.1,0,0.1,0,0.2,0l0,0l0,0
		c0.2-0.3,0.3-0.6,0.3-0.9c0,0.1,0.1,0.1,0.1,0.2c0.4,0.5,0.8,0.9,1.5,1.2c-1.1,0.4-2.1,0.6-2.1,0.7c-0.4,0.1-0.8,0.4-0.7,1.2
		c0,0.1,0,0.1,0.1,0.1c0.5,0.1,1.2,0.1,2,0.1c0.7,0,1.3,0,1.6-0.1c0.8-0.2,2.8-0.6,3.1-0.6c0.1,0,0.1,0,0.2-0.1s0.1-0.3,0.1-0.5
		c0.2,0,0.4,0.1,0.8,0.1c0.3,0,0.5,0,0.8-0.1c0.1,0,0.1-0.1,0.1-0.1c0-0.1-0.1-0.1-0.1-0.1c-0.3,0-0.5-0.1-0.8-0.2
		c0.1,0,0.3,0,0.4-0.1c0.1,0,0.1,0,0.2-0.1l0,0c0.1,0,0.1-0.1,0-0.2c0-0.1-0.1-0.1-0.2,0c0,0,0,0-0.1,0l0,0c0,0-0.1,0-0.1-0.1
		C70,37.4,70,37.2,69.9,37c0.4,0.6,1.2,1,1.8,0.9c0.1,0,0.1,0,0.1-0.1s0-0.1-0.1-0.1c-0.2-0.1-0.4-0.3-0.5-0.5
		c-0.2-0.7,0.3-1.8,0.6-2.4l0.1-0.2c0-0.1,0.1-0.1,0.1-0.2c0.3,0.4,0.6,0.5,0.8,0.6c0.4,0.2,0.6,0.3,0.5,1.5c0,0,0,0,0,0.1
		c-0.5,0.3-1.2,0.4-1.4,0.3h-0.1c0,0-0.1,0.1,0,0.1c0.1,0.3,0.5,0.5,0.9,0.5c0.3,0,0.6-0.1,0.8-0.2c-0.4,0.6-1.5,1-2.3,1
		c-0.1,0-0.1,0-0.1,0.1s0,0.1,0.1,0.1c0.8,0.4,1.8,0.2,2.5-0.3c-0.6,0.8-1.8,1-3,1.2c-0.1,0-0.1,0.1-0.1,0.1c0,0.1,0,0.1,0.1,0.1
		c0.3,0,0.7,0,1,0l0,0c0,0.1,0,0.1,0.1,0.2c0.7,0.4,1.6,0.6,2.4,0.6l0,0c2.1,0,3.5-1.2,3.8-3.2c0.5-3.4-1.2-4.7-2.7-5.4
		c-1.4-0.6-2.1-1.4-2.5-2.1l0.5,0.1l0,0c0.1,0,0.1-0.1,0.1-0.1v-0.1c-0.1-0.2-0.5-1-0.9-1.4c0.2,0,0.3-0.1,0.3-0.1
		c0-0.1-0.1-0.2-0.4-0.3c-0.2-0.1-0.4-0.1-0.7-0.2c0.1,0,0.2,0,0.2,0c0.4,0,0.5,0,0.6-0.1c0.1,0,0.1-0.1,0.1-0.1
		c0-0.1-0.1-0.1-0.1-0.1s-0.1,0-0.2,0c-0.4,0-1.5-0.1-2.4-1.2c0.1,0,0.2,0,0.3,0c0.8,0,1.3-0.4,1.3-0.4s0.1-0.1,0-0.1
		c0-0.1-0.1-0.1-0.1-0.1c-0.4,0.1-0.9,0-1.3-0.1c0.3-0.1,0.4-0.2,0.5-0.3c0,0,0-0.1,0.1-0.1v-0.1l-0.1-0.1c-0.2,0-0.4,0.1-0.6,0.1
		c-0.8,0-1.7-0.3-1.9-0.7c0,0,0.7-0.1,0.9-0.6v-0.1h-0.1c-0.4,0.1-1-0.1-1.5-0.4c-0.3-0.1-0.5-0.2-0.7-0.3c0.2-0.4,0.4-0.6,0.4-0.6
		s0-0.1,0-0.2c0,0-0.1-0.1-0.2,0c0,0-0.5,0.4-1.5,0.4c-0.3-0.1-0.4-0.2-0.5-0.2c-0.3-0.1-0.6-0.3-2.1-1.1c-1.4-0.9-1.8-1.6-2.1-2.5
		c-0.2-0.7-0.7-2.7-2.8-4c-0.1-1-1.1-2.6-2.4-3.3c-1.3-0.7-1.9-0.6-2-0.5c0,0-0.2,0-0.2,0.1s0.1,0.2,0.4,0.3
		c0.3,0.1,0.9,0.4,1.2,0.7c-0.1,0.3-0.5,0.6-0.8,0.9c-0.6,0.6-1.2,1.2-1.4,2c0,0.1,0,0.1,0.1,0.1s0.1,0,0.1-0.1
		c0.1-0.4,0.4-0.7,0.6-0.9c-0.5,0.6-1,1.5-0.9,2c0,0.1,0.1,0.1,0.1,0.1c0.1,0,0.1,0,0.1-0.1s0.1-0.2,0.1-0.3
		c0.1-0.4,0.3-0.8,0.8-1.1c-0.3,0.6-0.3,1.2-0.3,1.2v0.1c-0.7,0.8-1.4,2-0.5,3.5c0,0,0,0,0,0.1c0,0.2-0.1,0.3-0.3,0.4
		c-0.5,0.1-1,0.4-1.1,0.5c0,0,0,0-0.1,0.1c-0.1,0.4,0.1,1,0.4,1.3C51.9,21.9,52.3,22.3,52.9,22.3z M75.1,38.7c-0.7,1-2.2,1.2-3,1
		c1.6,0,2.2-0.4,2.8-0.9C75,38.8,75,38.7,75.1,38.7z"/>
	<g>
		<path class="st5" d="M57.9,28.7v-0.3L58,28l-0.8-0.1h-0.3c-0.1,0-0.1,0-0.1,0l0,0c0,0,0.2-0.2,0.3-0.4c0.1-0.2,0.2-0.3,0.3-0.4
			c0.2-0.3,0.2-0.4,0.2-0.4s-0.1,0.2-0.3,0.4c-0.1,0.1-0.2,0.2-0.4,0.4c-0.2,0.2-0.2,0.2-0.7,0.6l1.4,0.1l0,0v0.2v0.3
			c-0.1,1-0.1,1.9,0,2.6c0.1,0.7,0.4,1,0.4,1s-0.2-0.4-0.3-1C57.7,30.6,57.7,29.7,57.9,28.7z"/>
		<path class="st5" d="M62.3,32v0.3l0.1,1c0.1,0,0.1,0,0.2,0c0.1-0.2,0.2-0.5,0.2-0.6c0.1-0.4,0.2-0.7,0.2-1.1c0-0.2,0-0.4,0-0.5
			v-0.2c0,0-0.1,0,0.1,0c0.2,0,0.2-0.2,0.2-0.3c0.1-0.2,0.1-0.3,0.1-0.5c0-0.3,0-0.6,0-0.8c0-0.4,0.1-0.7,0-0.7c0,0-0.1,0.2-0.2,0.7
			l-0.1,0.8c0,0.1,0,0.3-0.1,0.5c-0.1,0.1,0,0.3-0.5-0.2v0.4c0,0.2,0,0.2,0,0.3c0,0.2,0,0.3,0,0.5c0,0.3-0.1,0.7-0.2,1.1
			c-0.1,0.2,0,0.1,0,0.1l0,0l0,0v-0.2v-0.4l-0.1-0.4v-0.3v-0.1l0,0l0,0l-0.1,0.1C62,32,62,32.1,61.9,32.3s-0.2,0.4-0.2,0.5
			c-0.2,0.6-0.2,1.1-0.2,1.1s0.1-0.4,0.3-1c0.1-0.2,0.1-0.3,0.2-0.5C62.1,32.2,62.3,31.9,62.3,32C62.3,31.9,62.2,32,62.3,32z"/>
		<path class="st5" d="M66.7,38c0.5,0.3,1,0.4,1.4,0.2c0.3-0.1,0.5-0.3,0.5-0.3S68.4,38,68.1,38c-0.3,0.1-0.8,0-1.2-0.3
			c-1-0.5-1.9-0.5-1.9-0.5C64.9,37.4,65.8,37.5,66.7,38z"/>
	</g>
</g>
<path class="st6" d="M95.8,48.2c0,0.5-0.1,0.9-0.3,1.4c-0.2,0.6-0.6,1.1-1,1.5c-0.7,0.6-1.6,0.9-2.6,0.9c-0.9,0-1.7-0.3-2.4-0.8
	c-0.9-0.7-1.3-1.8-1.3-3c0-2.1,1.7-3.8,3.8-3.7C94.1,44.4,95.8,46.1,95.8,48.2L95.8,48.2z M89.3,48c0,1.7,1,3.4,2.8,3.4
	c1.5,0,2.7-1.3,2.7-3.2c0-1.6-0.9-3.5-2.8-3.5C90.6,44.8,89.3,46,89.3,48L89.3,48z"/>
<path class="st6" d="M97.2,47.5c0.1,0,0.3,0,0.4-0.1c0.2-0.1,0.2-0.1,0.2-0.7c0.1-0.4,0.2-0.9,0.3-1.3c0.4-0.8,1.2-1.3,2.1-1.3
	c0.5,0,1,0.2,1,0.5s-0.4,0.5-0.5,0.5c0,0-0.1,0-0.1-0.1l-0.2-0.2c-0.2-0.2-0.4-0.3-0.7-0.3c-0.4,0-0.7,0.3-0.9,0.6
	c-0.3,0.6-0.4,1.2-0.3,1.8v0.5h1.5l-0.2,0.5h-1.4v2.6c0,0.9,0,0.9,0.9,0.9v0.3c-0.5,0-0.9-0.1-1.2-0.1s-0.7,0-1.1,0.1v-0.4
	c0.7,0,0.7,0,0.7-0.8v-2.8H97L97.2,47.5z"/>
<path class="st6" d="M100.9,47.5c0.1,0,0.3,0,0.4-0.1c0.2-0.1,0.2-0.1,0.2-0.7c0.1-0.4,0.2-0.9,0.3-1.3c0.4-0.8,1.2-1.3,2.1-1.3
	c0.5,0,1,0.2,1,0.5s-0.4,0.5-0.5,0.5c0,0-0.1,0-0.1-0.1l-0.2-0.2c-0.2-0.2-0.4-0.3-0.7-0.3c-0.4,0-0.7,0.3-0.9,0.6
	c-0.3,0.6-0.4,1.2-0.3,1.8v0.5h1.5l-0.2,0.5h-1.3v2.6c0,0.9,0,0.9,0.9,0.9v0.3c-0.5,0-0.9-0.1-1.2-0.1s-0.7,0-1.1,0.1v-0.4
	c0.7,0,0.7,0,0.7-0.8v-2.8h-0.7L100.9,47.5z"/>
<path class="st6" d="M104.6,47.6c0.4-0.1,0.8-0.3,1.2-0.6l0.2,0.1c0,0.3-0.1,0.6-0.1,0.9v2.7c0,0.6,0,0.7,0.7,0.7v0.4
	c-0.4,0-0.7-0.1-1.1-0.1c-0.3,0-0.7,0-1.1,0.1v-0.3c0.7,0,0.7-0.1,0.7-0.8v-2c0-0.5,0-0.7-0.6-0.7L104.6,47.6z M105,44.8
	c0-0.3,0.2-0.5,0.5-0.5s0.5,0.2,0.5,0.5l0,0c0,0.3-0.2,0.5-0.5,0.5c-0.1,0-0.3-0.1-0.4-0.1C105.1,45.1,105,45,105,44.8z"/>
<path class="st6" d="M111.3,51c-0.4,0.6-1.1,0.9-1.8,0.9c-0.5,0-0.9-0.1-1.3-0.5c-0.5-0.5-0.8-1.2-0.8-1.9c0-1.3,0.9-2.3,2.2-2.4
	h0.1c0.9,0,1.5,0.5,1.5,0.7s-0.2,0.4-0.4,0.4c-0.1,0-0.1,0-0.3-0.2c-0.2-0.3-0.5-0.5-0.8-0.5c-0.5,0-1.4,0.4-1.4,1.8
	c-0.1,1,0.6,1.8,1.5,1.9h0.1c0.4,0,0.9-0.2,1.2-0.5L111.3,51z"/>
<path class="st6" d="M111.6,47.6c0.4-0.1,0.8-0.3,1.2-0.6l0.2,0.1c0,0.3-0.1,0.6-0.1,0.9v2.7c0,0.6,0,0.7,0.7,0.7v0.4
	c-0.4,0-0.7-0.1-1.1-0.1s-0.7,0-1.1,0.1v-0.3c0.7,0,0.7-0.1,0.7-0.8v-2c0-0.5,0-0.7-0.6-0.7L111.6,47.6z M112,44.8
	c0-0.3,0.2-0.5,0.5-0.5s0.5,0.2,0.5,0.5l0,0c0,0.3-0.2,0.5-0.5,0.5c-0.1,0-0.3-0.1-0.4-0.1C112.1,45.1,112,45,112,44.8z"/>
<path class="st6" d="M116.6,49.2v-0.6c0-0.3,0-1-0.7-1c-0.2,0-0.3,0.1-0.5,0.1c-0.4,0.2-0.4,0.3-0.4,0.5v0.1
	c-0.1,0.1-0.5,0.2-0.5,0.2l-0.1-0.1c0-0.2,0.1-0.4,0.3-0.6c0.4-0.3,0.9-0.6,1.4-0.9h0.1c0.3,0,0.6,0.1,0.8,0.3
	c0.3,0.3,0.4,0.6,0.4,1.3c0,0.3,0,1.5,0,1.8c0,0.5,0,0.8,0.3,0.8c0.1,0,0.3-0.1,0.4-0.2l0.1,0.2c-0.3,0.3-0.6,0.4-1,0.5
	c-0.5,0-0.5-0.4-0.6-0.7c-0.3,0.4-0.8,0.6-1.3,0.7c-0.5,0-1-0.4-1-0.9v-0.1c0-0.6,0.4-0.8,1.1-1.1L116.6,49.2z M116.6,49.6
	c-1.1,0.4-1.5,0.6-1.5,1.1c0,0.3,0.2,0.6,0.6,0.6l0,0c0.4,0,0.7-0.2,0.9-0.5V49.6z"/>
<path class="st6" d="M119.2,44.6c0.4-0.1,0.8-0.3,1.2-0.6l0.2,0.1c0,0.4-0.1,0.9-0.1,1.3v4.9c0,0.3,0,0.5,0,0.8s0.1,0.3,0.6,0.3v0.3
	c-0.3,0-0.7-0.1-1-0.1c-0.4,0-0.7,0-1.1,0.1v-0.4c0.7,0,0.7,0,0.7-0.9v-4.9c0-0.6,0-0.7-0.6-0.7L119.2,44.6z"/>
<path class="st6" d="M122.7,47.2h0.9h1v0.4c-0.2,0-0.5,0-0.5,0.3c0,0.1,0,0.2,0.1,0.3l0.9,2.3l0.8-2l-0.2-0.4
	c-0.1-0.3-0.2-0.5-0.7-0.5v-0.4c0.4,0,0.7,0,1.1,0s0.7,0,1.1,0v0.4c-0.4,0-0.7,0-0.7,0.3c0,0.1,0,0.2,0.1,0.4l0.9,2.2l0.6-1.7
	c0.2-0.6,0.2-0.7,0.2-0.8c0-0.3-0.3-0.3-0.5-0.3v-0.3h1.6v0.3c-0.5,0-0.6,0.3-0.8,0.9l-0.9,2.3c-0.1,0.4-0.2,0.5-0.3,0.9h-0.2
	c-0.2-0.5-0.2-0.5-0.4-1l-0.7-1.8l-0.7,1.7c-0.2,0.5-0.3,0.6-0.5,1.1h-0.2c-0.2-0.7-0.8-2.2-1.2-3.2s-0.4-1-0.9-1L122.7,47.2z"/>
<path class="st6" d="M131.1,49c0,0.1,0,0.2,0,0.3c0,0.3,0,0.6,0.2,0.9c0.3,0.6,0.9,1,1.5,1c0.4,0,0.8-0.1,1.1-0.4l0.2,0.2
	c-0.2,0.2-0.4,0.4-0.6,0.5c-0.3,0.2-0.7,0.3-1.1,0.3c-1.1,0-2-1-2-2.1v-0.1c-0.1-1.2,0.8-2.3,2-2.4h0.1c0.7-0.1,1.4,0.5,1.5,1.2v0.1
	c0,0.5-0.2,0.5-0.5,0.5H131.1z M133,48.6c0.2,0,0.3,0,0.3-0.3c0-0.4-0.3-0.7-0.7-0.7h-0.1c-0.6,0-1.1,0.4-1.2,1H133z"/>
<path class="st6" d="M135,44.6c0.4-0.1,0.9-0.3,1.3-0.6l0.2,0.1c-0.1,0.7-0.1,1.4-0.1,2.1v1.6c0.4-0.4,1-0.6,1.5-0.6
	c1.1,0,2,1,2,2.1v0.1c0.1,1.3-0.9,2.4-2.3,2.5c-0.1,0-0.1,0-0.2,0h-0.1c-0.3,0-0.6-0.1-0.8-0.1h-0.3c-0.2,0-0.4,0-0.6,0.1v-5.7
	c0-1,0-1.2-0.6-1.2L135,44.6L135,44.6z M136.3,50.2c0,0.2,0,0.4,0.1,0.6c0.2,0.4,0.6,0.6,1,0.6c0.9,0,1.6-0.8,1.5-1.7v-0.1
	c0.1-0.9-0.5-1.7-1.4-1.8c-0.1,0-0.1,0-0.2,0c-0.4,0-0.8,0.1-1.1,0.3L136.3,50.2L136.3,50.2z"/>
<path class="st6" d="M142.5,50.4c0,0.2,0.1,0.4,0.2,0.6c0.1,0.3,0.4,0.4,0.7,0.4c0.4,0.1,0.8-0.2,0.8-0.6v-0.1c0-0.4-0.2-0.5-1-1
	c-0.5-0.3-1-0.7-1-1.3c0-0.7,0.6-1.3,1.3-1.3h0.1c0.4,0,0.7,0.1,1.1,0.2l0.1,0.9h-0.3c-0.1-0.3-0.3-0.8-0.8-0.8
	c-0.3,0-0.6,0.2-0.7,0.6l0,0c0,0.4,0.4,0.7,0.7,0.9c0.7,0.5,1.2,0.7,1.2,1.5c0,0.7-0.6,1.3-1.4,1.3h-0.1c-0.4,0-0.8-0.1-1.2-0.2
	l-0.1-1.1L142.5,50.4z"/>
<path class="st6" d="M146.2,47.6c0.4-0.1,0.8-0.3,1.2-0.6l0.2,0.1c0,0.3-0.1,0.6-0.1,0.9v2.7c0,0.6,0,0.7,0.7,0.7v0.4
	c-0.4,0-0.7-0.1-1.1-0.1s-0.7,0-1.1,0.1v-0.3c0.7,0,0.7-0.1,0.7-0.8v-2.1c0-0.5,0-0.7-0.6-0.7L146.2,47.6z M146.5,44.8
	c0-0.3,0.2-0.5,0.5-0.5s0.5,0.2,0.5,0.5l0,0c0,0.3-0.2,0.5-0.5,0.5c-0.1,0-0.3-0.1-0.4-0.1C146.6,45.1,146.5,45,146.5,44.8
	L146.5,44.8z"/>
<path class="st6" d="M149.2,47.5c0.5-0.3,0.9-0.9,1.1-1.5h0.3v1.4h1.4l-0.2,0.5h-1.3v2.2c0,0.3,0,0.6,0.1,0.9
	c0.1,0.2,0.4,0.3,0.7,0.3c0.2,0,0.4,0,0.6-0.1l0.1,0.3c-0.4,0.2-0.8,0.3-1.2,0.3c-0.3,0-0.6-0.1-0.8-0.3c-0.3-0.3-0.3-0.5-0.3-1.2
	v-2.5h-0.6L149.2,47.5z"/>
<path class="st6" d="M153.4,49c0,0.1,0,0.2,0,0.3c0,0.3,0,0.6,0.2,0.9c0.3,0.6,0.9,1,1.5,1c0.4,0,0.8-0.1,1.1-0.4l0.2,0.2
	c-0.2,0.2-0.4,0.4-0.6,0.5c-0.3,0.2-0.7,0.3-1.1,0.3c-1.1,0-2-1-2-2.1v-0.1c-0.1-1.2,0.8-2.3,2-2.4h0.1c0.7-0.1,1.4,0.5,1.5,1.2v0.1
	c0,0.5-0.2,0.5-0.5,0.5H153.4z M155.3,48.6c0.2,0,0.3,0,0.3-0.3c0-0.4-0.3-0.7-0.7-0.7h-0.1c-0.6,0-1.1,0.4-1.2,1H155.3z"/>
<path class="st7" d="M37.5,9.1c0-0.1-0.1-0.2-0.2-0.2c-0.1,0-0.2,0.1-0.2,0.2V21c-0.5-0.3-1.5-0.4-2.6-0.2c-1.4,0.4-2.5,1.3-2.3,2
	s1.5,1,3,0.7c1.4-0.4,2.4-1.2,2.3-2V9.1z"/>
<path class="st7" d="M217.4,33.8C217.4,33.7,217.3,33.7,217.4,33.8v-0.2l-7.8,1.8v2.1l0,0v7.7c-0.4-0.3-1.2-0.3-2.1-0.1
	c-1.2,0.3-2,1-1.8,1.6s1.2,0.8,2.4,0.5c1.1-0.3,2-1,1.8-1.6v-8.2l7.1-1.7v7.6c-0.4-0.3-1.2-0.3-2.1-0.1c-1.2,0.3-2,1-1.8,1.6
	s1.2,0.8,2.4,0.5c1.1-0.3,2-1,1.8-1.6v-9.9H217.4z"/>
<path class="st7" d="M227.5,47.6c1.1-0.3,2-1,1.8-1.6V36l0,0v-0.2l-7.8,1.8v2.1l0,0v0.8l0,0v0.8l0,0v6.1c-0.4-0.3-1.2-0.3-2.1-0.1
	c-1.2,0.3-2,1-1.8,1.6s1.2,0.8,2.4,0.5c1.1-0.3,2-1,1.8-1.6v-6.6l7.1-1.7v6c-0.4-0.3-1.2-0.3-2.1-0.1c-1.2,0.3-2,1-1.8,1.6
	C225.3,47.7,226.3,47.9,227.5,47.6z M221.9,40.5v-0.8L229,38v0.8L221.9,40.5z"/>
<path class="st7" d="M32.7,5c-1.2-1.1-2.9-2.4-4.2-3.4v2.5l0,0v10.3C28,14,27,14,26,14.2c-1.4,0.4-2.5,1.3-2.3,2s1.5,1,3,0.7
	c1.4-0.4,2.4-1.2,2.3-2V4.4c0.7,0.5,2.1,1.5,2.9,2.2c1.3,1.2-0.8,2.6-1.7,3.3C34.4,8.1,34.2,6.3,32.7,5z"/>
<path class="st7" d="M21.6,7.8c-1.2-1.1-2.9-2.4-4.2-3.4v2.5l0,0v10.3c-0.3-0.3-0.9-0.5-1.6-0.5c-0.4,0-0.8,0-1.1,0.1
	C14,17,13.4,17.3,13,17.7c-0.5,0.4-0.7,0.9-0.5,1.3c0.2,0.6,0.9,1,1.9,1c0.4,0,0.8,0,1.1-0.1c0.7-0.2,1.3-0.5,1.7-0.9
	c0.4-0.3,0.6-0.7,0.6-1v-0.1V7.2c0.7,0.5,2.1,1.5,2.9,2.2c1.3,1.2-0.8,2.6-1.7,3.3C23.3,10.8,23.1,9.1,21.6,7.8z M16.8,18.8
	c-0.4,0.4-0.9,0.8-1.5,0.9c-0.3,0.1-0.7,0.2-1,0.2c-0.8,0-1.3-0.3-1.4-0.8c-0.1-0.3,0.1-0.7,0.4-1.1c0.4-0.4,0.9-0.8,1.5-0.9
	c0.3-0.1,0.7-0.2,1-0.2c0.8,0,1.3,0.3,1.4,0.8C17.3,18,17.2,18.4,16.8,18.8z"/>
<path class="st7" d="M231.8,44.9v-4.5c0-0.1-0.1-0.2-0.2-0.2c-0.1,0-0.2,0.1-0.2,0.2v7.9c0,0.1,0,0.1,0.1,0.1h0.1h0.1
	c1.5-0.9,2.4-2.3,2-3.1C233.6,45,233.2,44.6,231.8,44.9z M231.8,47.7v-2.2c0,0,0,0,0.1,0c0.9-0.2,1.5-0.1,1.6,0.2
	C233.7,46.1,233,47,231.8,47.7z"/>
<g>
	<path class="st7" d="M240.8,39.4c-0.4-0.5-0.8-0.9-1.3-1.1c-0.5-0.3-1-0.4-1.6-0.4c-0.1,0-0.2,0-0.3,0c-0.3,0-0.5,0.1-0.8,0.1
		c0,0-0.1,0-0.2,0l0,0h-0.1c-1.1,0.4-1.7,1.3-1.7,2.4v0.1c0,0.6,0.5,1.2,1.2,1.2c0.6,0,1.2-0.5,1.2-1.2c0-0.6-0.5-1.2-1.2-1.2
		c-0.3,0-0.6,0.1-0.8,0.3c0.2-0.6,0.7-1.1,1.4-1.4c0.1,0,0.1,0,0.2-0.1c0.2,0,0.4,0,0.7,0c1.5,0,2.4,0.7,2.9,2c0.7,2,0.4,4.8-2.1,7
		c-0.3,0.2-0.6,0.3-0.8,0.4c-0.1,0-0.1,0.1-0.1,0.2l0.1,0.1l0,0c0.2-0.1,0.5-0.2,0.7-0.4l0,0c0,0,0,0,0.1,0c2.2-1.3,4-4.4,3.2-6.8
		C241.4,40.3,241.1,39.8,240.8,39.4z"/>
	<path class="st7" d="M242.6,39.4c-0.2,0-0.4,0.2-0.4,0.4s0.2,0.4,0.4,0.4s0.4-0.2,0.4-0.4C243,39.6,242.8,39.4,242.6,39.4z"/>
	<path class="st7" d="M242.6,43.2c-0.2,0-0.4,0.2-0.4,0.4s0.2,0.4,0.4,0.4s0.4-0.2,0.4-0.4S242.8,43.2,242.6,43.2z"/>
</g>
<path class="st7" d="M9.4,15.7c-0.3-1.3-1.3-2.4-2.9-2.4l-0.3-2c1.7-1.9,1.5-2.5,1.5-3.6C7.6,6.5,7.5,6,6.9,5.1
	C6.3,5.8,4.8,6,5.4,9.1l0.2,1.1c-0.1,0.1-0.2,0.2-0.3,0.3C3,13,2.4,15.1,2.8,16.8c0.7,3.1,3.8,2.8,4.2,2.5c0.3,2.1,0.7,3.6-0.4,4
	C6.4,23.4,5.5,24,5,22.4c-0.1-0.4-0.4-0.7-0.7-0.7c-0.3,0-0.5,0.1-0.7,0.3c-0.5,0.7,0,2.2,2,2.2c2.8,0,2.2-2.2,1.8-4.8
	C7.6,19.2,9.8,18.1,9.4,15.7z M7,5.9C7.6,7.4,7,8.7,5.9,10c0,0-0.1-0.6-0.1-1.2C5.7,7.7,6.2,7,7,5.9z M3.3,17.7
	c-0.9-2.4,1.1-4.4,2.5-5.9l0.3,1.6c-0.4,0.1-2,1-2,2.4c-0.2,1.6,1,2.8,2.3,2.3c-1.8,0-1.9-2.4-0.9-3.1c0.1-0.1,0.2-0.1,0.3-0.2l0,0
	l0,0c0.2-0.1,0.3-0.1,0.5-0.1L6.9,19C6.3,19.3,4.2,19.7,3.3,17.7z M7.3,18.9l-0.6-4.2C9,14.3,9.5,17.8,7.3,18.9z"/>
<path class="st7" d="M246.6,50V40c0-0.1-0.1-0.2-0.2-0.2c-0.1,0-0.2,0.1-0.2,0.2v9.6c-0.4-0.3-1.2-0.3-2.1-0.1c-1.2,0.3-2,1-1.8,1.6
	s1.2,0.8,2.4,0.5S246.7,50.6,246.6,50z M245.7,50.9c-0.3,0.3-0.6,0.5-1.1,0.7c-0.2,0.1-0.5,0.1-0.7,0.1c-0.6,0-1-0.2-1-0.6
	c0-0.2,0.1-0.5,0.3-0.8c0.3-0.3,0.6-0.5,1.1-0.7c0.2-0.1,0.5-0.1,0.7-0.1c0.6,0,1,0.2,1,0.6C246,50.3,245.9,50.6,245.7,50.9z"/>
<g>
	<path d="M41.7,18.5h2.5V35h10v2H41.7V18.5z"/>
	<path d="M54.7,24.7h2.4l3.9,9.6l3.9-9.6h2.4l-5.4,13c-0.4,1.1-0.9,1.8-1.3,2.3c-0.6,0.6-1.3,0.9-2.2,0.9c-1,0-1.7-0.1-2-0.4v-2.1
		c0.6,0.3,1.2,0.4,1.8,0.4c0.4,0,0.7-0.1,1-0.4c0.3-0.3,0.5-0.7,0.6-1.2L54.7,24.7z"/>
	<path d="M70.7,26.3c1.1-1.1,2.4-1.6,4-1.6s2.9,0.5,4,1.6c1.2,1.2,1.8,2.8,1.8,4.7s-0.6,3.4-1.8,4.7c-1.1,1.1-2.4,1.6-4,1.6
		s-2.9-0.5-4-1.6c-1.2-1.2-1.8-2.8-1.8-4.7C68.9,29,69.5,27.5,70.7,26.3z M72.6,27.5c-0.9,0.9-1.3,2-1.3,3.5c0,1.4,0.4,2.6,1.2,3.4
		c0.6,0.6,1.4,1,2.3,1s1.6-0.3,2.3-1c0.8-0.8,1.2-1.9,1.2-3.4c0-1.4-0.4-2.6-1.3-3.5c-0.6-0.6-1.3-0.9-2.2-0.9
		C73.9,26.6,73.1,26.9,72.6,27.5z"/>
	<path d="M85.6,37h-2.2V24.9h2.2V27c1.3-1.6,2.7-2.4,4.1-2.4s2.6,0.4,3.5,1.3c0.6,0.6,0.9,1.3,0.9,2.1v9h-2.2v-8.3
		c0-0.6-0.2-1.2-0.6-1.6s-1-0.6-1.8-0.6c-0.7,0-1.4,0.4-2.2,1.1c-1.1,1.1-1.6,2.2-1.6,3.5V37H85.6z"/>
</g>
<g>
	<path d="M99.8,20.3h7.8c1.4,0,2.6,0.5,3.5,1.4s1.4,2.2,1.4,3.8c0,1.6-0.4,2.9-1.3,3.7c-0.9,0.8-2.1,1.3-3.6,1.3H102V37h-2.3
		L99.8,20.3L99.8,20.3z M102.1,22.1v6.5h5.1c0.9,0,1.6-0.3,2.2-0.8c0.6-0.6,0.9-1.4,0.9-2.4c0-1.1-0.3-1.9-0.8-2.5
		c-0.6-0.6-1.3-0.9-2.3-0.9L102.1,22.1L102.1,22.1z"/>
	<path d="M115.4,20.4h2v2.5h-2V20.4z M115.4,26h2v11h-2V26z"/>
	<path d="M121.7,26.9c0.7-0.7,1.8-1.1,3.1-1.1c1.6,0,2.8,0.4,3.5,1.1c0.7,0.7,1,1.4,1,2.3v6.2c0,0.7,0.3,1.3,0.8,1.7h-2.4
		c-0.3-0.3-0.4-0.7-0.4-1.3c-1,1-2.2,1.5-3.7,1.5c-1.2,0-2.2-0.3-2.8-1c-0.6-0.6-0.9-1.3-0.9-2.1c0-0.9,0.3-1.7,0.9-2.3
		c0.7-0.7,1.6-1.1,2.7-1.3c0.8-0.1,1.5-0.3,2.1-0.5c0.8-0.2,1.4-0.4,1.8-0.6c0-0.5-0.2-1-0.6-1.4s-0.9-0.6-1.7-0.6
		c-0.9,0-1.6,0.2-2,0.6c-0.3,0.3-0.5,0.6-0.6,1.1h-2.2C120.6,28.4,121,27.6,121.7,26.9z M127.4,31.4c-0.4,0.1-0.8,0.2-1.1,0.3
		c-1.1,0.3-2,0.5-2.5,0.6c-0.5,0.1-0.9,0.3-1.2,0.6c-0.3,0.3-0.5,0.7-0.5,1.1c0,0.5,0.2,0.9,0.5,1.2c0.2,0.2,0.6,0.3,1.3,0.3
		c1.1,0,2-0.4,2.7-1.1c0.5-0.5,0.7-0.8,0.8-1C127.4,33.4,127.4,31.4,127.4,31.4z"/>
	<path d="M134.4,37h-2V26h2v2c1.2-1.4,2.4-2.2,3.7-2.2s2.4,0.4,3.1,1.2c0.5,0.5,0.8,1.1,0.8,1.9V37h-2v-7.5c0-0.6-0.2-1.1-0.6-1.5
		c-0.4-0.4-0.9-0.6-1.7-0.6c-0.7,0-1.3,0.3-2,1c-1,1-1.5,2-1.5,3.1V37H134.4z"/>
	<path d="M146.3,27.3c1-1,2.2-1.5,3.6-1.5c1.4,0,2.6,0.5,3.6,1.5c1.1,1.1,1.7,2.5,1.7,4.2s-0.6,3.1-1.7,4.2c-1,1-2.2,1.5-3.6,1.5
		c-1.4,0-2.6-0.5-3.6-1.5c-1.1-1.1-1.7-2.5-1.7-4.2S145.2,28.4,146.3,27.3z M148,28.4c-0.8,0.8-1.2,1.8-1.2,3.1c0,1.3,0.4,2.3,1.1,3
		c0.6,0.6,1.3,0.9,2.1,0.9s1.5-0.3,2.1-0.9c0.7-0.7,1.1-1.7,1.1-3s-0.4-2.4-1.2-3.1c-0.5-0.5-1.2-0.8-2-0.8S148.5,27.9,148,28.4z"/>
</g>
<g>
	<path d="M159.1,34.2l-0.5-1.6l4.6-0.2v-1.5l0.6,0.1l1.4-1.4h-3.4c-0.9,0.7-1.9,1.3-2.9,1.7l-0.9-1.5c1.8-0.8,3.5-1.9,5.1-3.4h-4.6
		v-1.3h3.8v-1.8h-2.8V22h2.8v-2.8h1.3c0.4,0.1,0.4,0.3,0.1,0.5V22h2.3v0.9c0.6-0.9,1.1-2,1.6-3.1l1.2,0.9c0.4,0.3,0.4,0.3-0.1,0.5
		c-0.5,1.1-1.4,2.5-2.7,4h2.1v1.3h-3.2c-0.5,0.6-1.2,1.2-1.9,1.8h2.8l0.3-0.4l1.2,1.2c0.3,0.4,0.2,0.6-0.3,0.5l-2.7,1.9v0.9
		c1.1-0.1,2.6-0.3,4.3-0.6v1.4c-1.9,0.3-3.4,0.4-4.3,0.6v3c0,0.9-0.3,1.3-1.1,1.3h-1.7l-0.3-1.5h1.6c0.3,0,0.3-0.1,0.3-0.3v-2.2
		c-1.1,0.1-2.3,0.2-3.5,0.3C159.5,34.7,159.3,34.8,159.1,34.2z M165.7,23.2h-2V25h0.6C165,24.4,165.4,23.7,165.7,23.2z M171.3,23.7
		h5.8v1.5h-1.4c-0.3,2.6-1,5.1-2.1,7.4c0.9,1.3,2.1,2.5,3.9,3.4l-1.1,1.5c-1.5-1-2.8-2.1-3.7-3.4c-1.2,1.6-3,3.1-5.4,4.2l-1-1.6
		c2.4-1.1,4.2-2.4,5.3-4c-1-1.9-1.6-3.6-1.8-5.1l-1.2,2l-1-1.3c1.5-2.1,2.5-5,3.3-8.9l1.5,0.5c0.4,0.1,0.4,0.3-0.1,0.5
		C171.9,21.8,171.6,23,171.3,23.7z M174.3,25.2h-3.5c0.2,2.1,0.8,4.1,1.8,5.9C173.3,29.7,173.9,27.7,174.3,25.2z"/>
	<path d="M196.2,30.5c-0.4-0.3-0.9-0.7-1.3-1l-4.9,0.3v2.3h6.5v1.5H190V36h8.6v1.5h-18.9V36h8.7v-2.4h-6.4v-1.5h6.4v-2.2l-5.5,0.2
		c-0.3,0.4-0.4,0.4-0.6,0.1l-0.4-1.7h3.1l1.8-2.7h-3.9v-1.3h12.6v1.3h-3.1c1.8,1.2,3.5,2.4,5.1,3.5L196.2,30.5z M190.1,19.8v1.4h7.8
		v4.4h-1.6v-2.8H182v2.8h-1.6v-4.4h7.8v-2.1h1.8C190.6,19.2,190.6,19.5,190.1,19.8z M191.1,26.8l1.1-1h-3.4l-2,2.7l6.5-0.2
		C192.7,27.7,191.9,27.2,191.1,26.8z"/>
</g>
</svg>
