<?xml version="1.0" encoding="utf-8"?>
<!-- Generator: Adobe Illustrator 25.0.0, SVG Export Plug-In . SVG Version: 6.00 Build 0)  -->
<svg version="1.1" id="レイヤー_1" xmlns="http://www.w3.org/2000/svg" xmlns:xlink="http://www.w3.org/1999/xlink" x="0px"
	 y="0px" viewBox="0 0 248.6 54.4" style="enable-background:new 0 0 248.6 54.4;" xml:space="preserve">
<style type="text/css">
	.st0{fill:#4DB5C5;}
	.st1{fill:#FFF3A3;}
	.st2{fill:#E9AEB2;}
	.st3{fill:#DA4649;}
	.st4{fill:#CBDCAB;}
	.st5{fill:#F8CBD9;}
	.st6{fill:#040000;}
	.st7{fill:#FCE9F2;}
</style>
<polygon class="st0" points="36.4,30.2 45.2,27.3 42.6,36.3 "/>
<polygon class="st1" points="49.6,26.2 57.7,30.8 49.2,34.9 "/>
<polygon class="st2" points="59.9,32.6 66.4,26 68.2,35.3 "/>
<polygon class="st3" points="71.1,28.5 80.3,28.5 75,36.3 "/>
<polygon class="st4" points="82.7,32.3 89.7,26.2 90.7,35.5 "/>
<g>
	<path class="st5" d="M52.9,22.3c0.3,0.3,1.1,0.6,1.7,0.7c-0.4,0.3-1.1,0.8-1.5,0.8c-0.1,0-0.1,0-0.1-0.1c0-0.1-0.1-0.1-0.2,0
		c-0.1,0-0.1,0.1,0,0.2c0,0,0,0,0,0c0.2,0.3,0.5,0.5,0.9,0.5c0.4,0,0.8-0.2,1-0.3c-0.2,0.6-0.4,1.3-1.1,1.6c0,0-0.1,0.1-0.1,0.1
		c0,0.1,0,0.1,0.1,0.1c0.3,0,0.5,0,0.7-0.2c0,0.1,0.1,0.3,0.2,0.5c0.1,0.2,0.2,0.4,0.2,0.5c-0.1,0.3-0.8,0.5-1.1,0.5
		c-0.1,0-0.1,0.1-0.1,0.1c0,0.1,0,0.1,0.1,0.1c0.7,0.1,1.3,0,1.7-0.3c-0.2,0.6-0.4,1.3-1,1.6c0,0-0.1,0.1-0.1,0.1
		c0,0.1,0.1,0.1,0.1,0.1c0.4,0,0.7-0.1,0.9-0.4c-0.1,0.7,0.1,1.4,0.7,1.9c0,0,0.1,0,0.1,0c0.1,0,0.1-0.1,0.1-0.1c0,0,0-0.1,0-0.1
		l0,0c-0.3-0.7-0.4-0.9-0.1-1.3c0.1,0.1,0.2,0.3,0.4,0.5c0.4,0.5,0.9,1.2,0.8,1.6c0,0.1,0,0.2,0,0.3c0,0.5,0,0.8-0.7,1.1
		c0,0-0.1,0.1-0.1,0.1c0,0.1,0.1,0.1,0.1,0.1c0.3,0,0.6-0.1,0.8-0.4c0.2-0.2,0.4-0.6,0.4-0.9c0.5,1,0.7,2-0.3,2.7
		c0,0-0.1,0.1-0.1,0.1c0,0,0,0.1,0.1,0.1c0.2,0,0.8-0.3,1.1-0.7c0,0.4-0.1,0.6-0.1,0.7c-0.1,0.2-0.7,1.3-1.6,1.3
		c-0.1,0-0.1,0.1-0.1,0.1c0,0.1,0,0.1,0.1,0.1c0.3,0,0.7-0.1,1.1-0.2c-0.5,0.7-0.7,1-0.8,1.2c0,0,0,0.1,0,0.2c0,0,0.1,0,0.2,0
		c0.4-0.4,0.8-0.7,1-0.9c-0.1,0.5-0.2,1.2-0.3,1.3c-0.3,0.2-1.1,0.6-1.2,0.7c-0.2,0.1-0.3,0.3-0.3,0.4c0,0.1,0,0.3,0.1,0.5
		c0.1,0.1,0.3,0.2,0.7,0.2c0.5,0,1.1-0.2,1.2-0.2c0,0,0,0,0.1,0c0,0,1-1.3,1.6-1.7c0.2-0.1,0.3-0.2,0.3-0.2c0,0,0,0,0,0
		c0,0.1,0.1,0.1,0.1,0.2c0,0,0.1,0,0.1,0c0,0,0,0,0,0c0.1,0,0.1-0.1,0.1-0.1c0,0,0,0,0,0c0-0.2,0-0.4,0-0.5c0-0.1,0-0.2,0-0.3
		c0.1,0.3,0.1,0.4,0.4,0.5c0,0,0,0,0,0c0,0,0,0,0,0c0,0,0,0,0,0c0.1,0,0.1,0,0.2-0.1c0,0,0-0.1,0-0.1c0,0,0,0,0-0.1c0,0,0,0,0,0
		C61.1,37,61,36.4,61,35.8c0.1,0.3,0.3,0.6,0.5,0.7c0,0,0,0,0.1,0c0.1,0,0.1-0.1,0.1-0.1c0,0,0-0.1,0-0.1c-0.3-0.4-0.4-1.6-0.1-2.1
		c0.6,0.8,0.7,1.8,0.3,2.4c0,0.1,0,0.1,0,0.2c0,0,0.1,0,0.2,0c0.2-0.2,0.4-0.4,0.5-0.7c0.1,0.3,0.2,0.6,0.1,0.8l0,0
		c0,0.1,0,0.1,0,0.2c0.1,0,0.1,0,0.2,0c0,0,0,0,0,0l0,0c0.2-0.3,0.3-0.6,0.3-0.9c0,0.1,0.1,0.1,0.1,0.2c0.4,0.5,0.8,0.9,1.5,1.2
		c-1.1,0.4-2.1,0.6-2.1,0.7c-0.4,0.1-0.8,0.4-0.7,1.2c0,0.1,0,0.1,0.1,0.1c0.5,0.1,1.2,0.1,2,0.1c0.7,0,1.3,0,1.6-0.1
		c0.8-0.2,2.8-0.6,3.1-0.6c0.1,0,0.1,0,0.2-0.1c0.1-0.1,0.1-0.3,0.1-0.5c0.2,0,0.4,0.1,0.8,0.1c0.3,0,0.5,0,0.8-0.1
		c0.1,0,0.1-0.1,0.1-0.1c0-0.1-0.1-0.1-0.1-0.1c-0.3,0-0.5-0.1-0.8-0.2c0.1,0,0.3,0,0.4-0.1c0.1,0,0.1,0,0.2-0.1l0,0
		c0.1,0,0.1-0.1,0-0.2c0-0.1-0.1-0.1-0.2,0c0,0,0,0-0.1,0c0,0,0,0,0,0c0,0-0.1,0-0.1-0.1c-0.1-0.1-0.1-0.3-0.2-0.5
		c0.4,0.6,1.2,1,1.8,0.9c0.1,0,0.1,0,0.1-0.1c0-0.1,0-0.1-0.1-0.1c-0.2-0.1-0.4-0.3-0.5-0.5c-0.2-0.7,0.3-1.8,0.6-2.4l0.1-0.2
		c0-0.1,0.1-0.1,0.1-0.2c0.3,0.4,0.6,0.5,0.8,0.6c0.4,0.2,0.6,0.3,0.5,1.5c0,0,0,0,0,0.1c-0.5,0.3-1.2,0.4-1.4,0.3c0,0-0.1,0-0.1,0
		c0,0-0.1,0.1,0,0.1c0.1,0.3,0.5,0.5,0.9,0.5c0.3,0,0.6-0.1,0.8-0.2c-0.4,0.6-1.5,1-2.3,1c-0.1,0-0.1,0-0.1,0.1c0,0.1,0,0.1,0.1,0.1
		c0.8,0.4,1.8,0.2,2.5-0.3c-0.6,0.8-1.8,1-3,1.2c-0.1,0-0.1,0.1-0.1,0.1c0,0.1,0,0.1,0.1,0.1c0.3,0,0.7,0,1,0c0,0,0,0,0,0
		c0,0.1,0,0.1,0.1,0.2c0.7,0.4,1.6,0.6,2.4,0.6h0c2.1,0,3.5-1.2,3.8-3.2c0.5-3.4-1.2-4.7-2.7-5.4c-1.4-0.6-2.1-1.4-2.5-2.1l0.5,0.1
		c0,0,0,0,0,0c0.1,0,0.1-0.1,0.1-0.1c0,0,0-0.1,0-0.1c-0.1-0.2-0.5-1-0.9-1.4c0.2,0,0.3-0.1,0.3-0.1c0-0.1-0.1-0.2-0.4-0.3
		c-0.2-0.1-0.4-0.1-0.7-0.2c0.1,0,0.2,0,0.2,0c0.4,0,0.5,0,0.6-0.1c0.1,0,0.1-0.1,0.1-0.1c0-0.1-0.1-0.1-0.1-0.1c0,0-0.1,0-0.2,0
		c-0.4,0-1.5-0.1-2.4-1.2c0.1,0,0.2,0,0.3,0c0.8,0,1.3-0.4,1.3-0.4c0,0,0.1-0.1,0-0.1c0-0.1-0.1-0.1-0.1-0.1c-0.4,0.1-0.9,0-1.3-0.1
		c0.3-0.1,0.4-0.2,0.5-0.3c0,0,0-0.1,0.1-0.1c0,0,0-0.1,0-0.1c0,0-0.1-0.1-0.1-0.1c-0.2,0-0.4,0.1-0.6,0.1c-0.8,0-1.7-0.3-1.9-0.7
		c0,0,0.7-0.1,0.9-0.6c0,0,0-0.1,0-0.1c0,0-0.1,0-0.1,0c-0.4,0.1-1-0.1-1.5-0.4c-0.3-0.1-0.5-0.2-0.7-0.3c0.2-0.4,0.4-0.6,0.4-0.6
		c0,0,0-0.1,0-0.2c0,0-0.1-0.1-0.2,0c0,0-0.5,0.4-1.5,0.4c-0.3-0.1-0.4-0.2-0.5-0.2c-0.3-0.1-0.6-0.3-2.1-1.1
		c-1.4-0.9-1.8-1.6-2.1-2.5c-0.2-0.7-0.7-2.7-2.8-4c-0.1-1-1.1-2.6-2.4-3.3c-1.3-0.7-1.9-0.6-2-0.5c0,0-0.2,0-0.2,0.1
		c0,0.1,0.1,0.2,0.4,0.3c0.3,0.1,0.9,0.4,1.2,0.7c-0.1,0.3-0.5,0.6-0.8,0.9c-0.6,0.6-1.2,1.2-1.4,2c0,0.1,0,0.1,0.1,0.1
		c0.1,0,0.1,0,0.1-0.1c0.1-0.4,0.4-0.7,0.6-0.9c-0.5,0.6-1,1.5-0.9,2c0,0.1,0.1,0.1,0.1,0.1c0.1,0,0.1,0,0.1-0.1
		c0-0.1,0.1-0.2,0.1-0.3c0.1-0.4,0.3-0.8,0.8-1.1c-0.3,0.6-0.3,1.2-0.3,1.2c0,0,0,0.1,0,0.1c-0.7,0.8-1.4,2-0.5,3.5c0,0,0,0,0,0.1
		c0,0.2-0.1,0.3-0.3,0.4c-0.5,0.1-1,0.4-1.1,0.5c0,0,0,0-0.1,0.1c-0.1,0.4,0.1,1,0.4,1.3C51.9,21.9,52.3,22.3,52.9,22.3z M75.1,38.7
		c-0.7,1-2.2,1.2-3,1c1.6,0,2.2-0.4,2.8-0.9C75,38.8,75,38.7,75.1,38.7z"/>
	<g>
		<path class="st5" d="M57.9,28.7l0-0.3L58,28l-0.8-0.1l-0.3,0c-0.1,0-0.1,0-0.1,0l0,0c0,0,0.2-0.2,0.3-0.4c0.1-0.2,0.2-0.3,0.3-0.4
			c0.2-0.3,0.2-0.4,0.2-0.4c0,0-0.1,0.2-0.3,0.4c-0.1,0.1-0.2,0.2-0.4,0.4c-0.2,0.2-0.2,0.2-0.7,0.6l1.4,0.1l0,0l0,0.2l0,0.3
			c-0.1,1-0.1,1.9,0,2.6c0.1,0.7,0.4,1,0.4,1c0,0-0.2-0.4-0.3-1C57.7,30.6,57.7,29.7,57.9,28.7z"/>
		<path class="st5" d="M62.3,32l0,0.3l0.1,1c0.1,0,0.1,0,0.2,0c0.1-0.2,0.2-0.5,0.2-0.6c0.1-0.4,0.2-0.7,0.2-1.1c0-0.2,0-0.4,0-0.5
			l0-0.2c0,0-0.1,0,0.1,0c0.2,0,0.2-0.2,0.2-0.3c0.1-0.2,0.1-0.3,0.1-0.5c0-0.3,0-0.6,0-0.8c0-0.4,0.1-0.7,0-0.7
			c0,0-0.1,0.2-0.2,0.7l-0.1,0.8c0,0.1,0,0.3-0.1,0.5c-0.1,0.1,0,0.3-0.5-0.2l0,0.4c0,0.2,0,0.2,0,0.3c0,0.2,0,0.3,0,0.5
			c0,0.3-0.1,0.7-0.2,1.1c-0.1,0.2,0,0.1,0,0.1c0,0,0,0,0,0l0,0l0-0.2l0-0.4l-0.1-0.4l0-0.3l0-0.1l0,0c0,0,0,0,0,0l-0.1,0.1
			C62,32,62,32.1,61.9,32.3c-0.1,0.2-0.2,0.4-0.2,0.5c-0.2,0.6-0.2,1.1-0.2,1.1c0,0,0.1-0.4,0.3-1c0.1-0.2,0.1-0.3,0.2-0.5
			C62.1,32.2,62.3,31.9,62.3,32C62.3,31.9,62.2,32,62.3,32z"/>
		<path class="st5" d="M66.7,38c0.5,0.3,1,0.4,1.4,0.2c0.3-0.1,0.5-0.3,0.5-0.3c0,0-0.2,0.1-0.5,0.1c-0.3,0.1-0.8,0-1.2-0.3
			c-1-0.5-1.9-0.5-1.9-0.5C64.9,37.4,65.8,37.5,66.7,38z"/>
	</g>
</g>
<path class="st6" d="M95.8,48.2c0,0.5-0.1,0.9-0.3,1.4c-0.2,0.6-0.6,1.1-1,1.5c-0.7,0.6-1.6,0.9-2.6,0.9c-0.9,0-1.7-0.3-2.4-0.8
	c-0.9-0.7-1.3-1.8-1.3-3c0-2.1,1.7-3.8,3.8-3.7C94.1,44.4,95.8,46.1,95.8,48.2L95.8,48.2z M89.3,48c0,1.7,1,3.4,2.8,3.4
	c1.5,0,2.7-1.3,2.7-3.2c0-1.6-0.9-3.5-2.8-3.5C90.6,44.8,89.3,46,89.3,48L89.3,48z"/>
<path class="st6" d="M97.2,47.5c0.1,0,0.3,0,0.4-0.1c0.2-0.1,0.2-0.1,0.2-0.7c0.1-0.4,0.2-0.9,0.3-1.3c0.4-0.8,1.2-1.3,2.1-1.3
	c0.5,0,1,0.2,1,0.5c0,0.3-0.4,0.5-0.5,0.5c0,0-0.1,0-0.1-0.1l-0.2-0.2c-0.2-0.2-0.4-0.3-0.7-0.3c-0.4,0-0.7,0.3-0.9,0.6
	c-0.3,0.6-0.4,1.2-0.3,1.8v0.5h1.5l-0.2,0.5h-1.4v2.6c0,0.9,0,0.9,0.9,0.9v0.3c-0.5,0-0.9-0.1-1.2-0.1s-0.7,0-1.1,0.1v-0.4
	c0.7,0,0.7,0,0.7-0.8v-2.8h-0.7L97.2,47.5z"/>
<path class="st6" d="M100.9,47.5c0.1,0,0.3,0,0.4-0.1c0.2-0.1,0.2-0.1,0.2-0.7c0.1-0.4,0.2-0.9,0.3-1.3c0.4-0.8,1.2-1.3,2.1-1.3
	c0.5,0,1,0.2,1,0.5c0,0.3-0.4,0.5-0.5,0.5c0,0-0.1,0-0.1-0.1l-0.2-0.2c-0.2-0.2-0.4-0.3-0.7-0.3c-0.4,0-0.7,0.3-0.9,0.6
	c-0.3,0.6-0.4,1.2-0.3,1.8v0.5h1.5l-0.2,0.5h-1.3v2.6c0,0.9,0,0.9,0.9,0.9v0.3c-0.5,0-0.9-0.1-1.2-0.1s-0.7,0-1.1,0.1v-0.4
	c0.7,0,0.7,0,0.7-0.8v-2.8h-0.7L100.9,47.5z"/>
<path class="st6" d="M104.6,47.6c0.4-0.1,0.8-0.3,1.2-0.6l0.2,0.1c0,0.3-0.1,0.6-0.1,0.9v2.7c0,0.6,0,0.7,0.7,0.7v0.4
	c-0.4,0-0.7-0.1-1.1-0.1c-0.3,0-0.7,0-1.1,0.1v-0.3c0.7,0,0.7-0.1,0.7-0.8v-2c0-0.5,0-0.7-0.6-0.7L104.6,47.6z M105,44.8
	c0-0.3,0.2-0.5,0.5-0.5s0.5,0.2,0.5,0.5l0,0c0,0.3-0.2,0.5-0.5,0.5c-0.1,0-0.3-0.1-0.4-0.1C105.1,45.1,105,45,105,44.8z"/>
<path class="st6" d="M111.3,51c-0.4,0.6-1.1,0.9-1.8,0.9c-0.5,0-0.9-0.1-1.3-0.5c-0.5-0.5-0.8-1.2-0.8-1.9c0-1.3,0.9-2.3,2.2-2.4
	c0,0,0.1,0,0.1,0c0.9,0,1.5,0.5,1.5,0.7c0,0.2-0.2,0.4-0.4,0.4c-0.1,0-0.1,0-0.3-0.2c-0.2-0.3-0.5-0.5-0.8-0.5
	c-0.5,0-1.4,0.4-1.4,1.8c-0.1,1,0.6,1.8,1.5,1.9c0,0,0.1,0,0.1,0c0.4,0,0.9-0.2,1.2-0.5L111.3,51z"/>
<path class="st6" d="M111.6,47.6c0.4-0.1,0.8-0.3,1.2-0.6l0.2,0.1c0,0.3-0.1,0.6-0.1,0.9v2.7c0,0.6,0,0.7,0.7,0.7v0.4
	c-0.4,0-0.7-0.1-1.1-0.1s-0.7,0-1.1,0.1v-0.3c0.7,0,0.7-0.1,0.7-0.8v-2c0-0.5,0-0.7-0.6-0.7L111.6,47.6z M112,44.8
	c0-0.3,0.2-0.5,0.5-0.5s0.5,0.2,0.5,0.5l0,0c0,0.3-0.2,0.5-0.5,0.5c-0.1,0-0.3-0.1-0.4-0.1C112.1,45.1,112,45,112,44.8z"/>
<path class="st6" d="M116.6,49.2v-0.6c0-0.3,0-1-0.7-1c-0.2,0-0.3,0.1-0.5,0.1c-0.4,0.2-0.4,0.3-0.4,0.5c0,0,0,0.1,0,0.1
	c-0.1,0.1-0.5,0.2-0.5,0.2s-0.1-0.1-0.1-0.1c0-0.2,0.1-0.4,0.3-0.6c0.4-0.3,0.9-0.6,1.4-0.9h0.1c0.3,0,0.6,0.1,0.8,0.3
	c0.3,0.3,0.4,0.6,0.4,1.3c0,0.3,0,1.5,0,1.8c0,0.5,0,0.8,0.3,0.8c0.1,0,0.3-0.1,0.4-0.2l0.1,0.2c-0.3,0.3-0.6,0.4-1,0.5
	c-0.5,0-0.5-0.4-0.6-0.7c-0.3,0.4-0.8,0.6-1.3,0.7c-0.5,0-1-0.4-1-0.9c0,0,0-0.1,0-0.1c0-0.6,0.4-0.8,1.1-1.1L116.6,49.2z
	 M116.6,49.6c-1.1,0.4-1.5,0.6-1.5,1.1c0,0.3,0.2,0.6,0.6,0.6c0,0,0,0,0,0c0.4,0,0.7-0.2,0.9-0.5V49.6z"/>
<path class="st6" d="M119.2,44.6c0.4-0.1,0.8-0.3,1.2-0.6l0.2,0.1c0,0.4-0.1,0.9-0.1,1.3v4.9c0,0.3,0,0.5,0,0.8
	c0,0.3,0.1,0.3,0.6,0.3v0.3c-0.3,0-0.7-0.1-1-0.1c-0.4,0-0.7,0-1.1,0.1v-0.4c0.7,0,0.7,0,0.7-0.9v-4.9c0-0.6,0-0.7-0.6-0.7
	L119.2,44.6z"/>
<path class="st6" d="M122.7,47.2h0.9h1v0.4c-0.2,0-0.5,0-0.5,0.3c0,0.1,0,0.2,0.1,0.3l0.9,2.3l0.8-2l-0.2-0.4
	c-0.1-0.3-0.2-0.5-0.7-0.5v-0.4c0.4,0,0.7,0,1.1,0s0.7,0,1.1,0v0.4c-0.4,0-0.7,0-0.7,0.3c0,0.1,0,0.2,0.1,0.4l0.9,2.2l0.6-1.7
	c0.2-0.6,0.2-0.7,0.2-0.8c0-0.3-0.3-0.3-0.5-0.3v-0.3h1.6v0.3c-0.5,0-0.6,0.3-0.8,0.9l-0.9,2.3c-0.1,0.4-0.2,0.5-0.3,0.9h-0.2
	c-0.2-0.5-0.2-0.5-0.4-1l-0.7-1.8l-0.7,1.7c-0.2,0.5-0.3,0.6-0.5,1.1h-0.2c-0.2-0.7-0.8-2.2-1.2-3.2s-0.4-1-0.9-1L122.7,47.2z"/>
<path class="st6" d="M131.1,49c0,0.1,0,0.2,0,0.3c0,0.3,0,0.6,0.2,0.9c0.3,0.6,0.9,1,1.5,1c0.4,0,0.8-0.1,1.1-0.4l0.2,0.2
	c-0.2,0.2-0.4,0.4-0.6,0.5c-0.3,0.2-0.7,0.3-1.1,0.3c-1.1,0-2-1-2-2.1c0,0,0-0.1,0-0.1c-0.1-1.2,0.8-2.3,2-2.4c0,0,0.1,0,0.1,0
	c0.7-0.1,1.4,0.5,1.5,1.2c0,0,0,0.1,0,0.1c0,0.5-0.2,0.5-0.5,0.5L131.1,49z M133,48.6c0.2,0,0.3,0,0.3-0.3c0-0.4-0.3-0.7-0.7-0.7
	c0,0-0.1,0-0.1,0c-0.6,0-1.1,0.4-1.2,1L133,48.6z"/>
<path class="st6" d="M135,44.6c0.4-0.1,0.9-0.3,1.3-0.6l0.2,0.1c-0.1,0.7-0.1,1.4-0.1,2.1v1.6c0.4-0.4,1-0.6,1.5-0.6
	c1.1,0,2,1,2,2.1c0,0,0,0.1,0,0.1c0.1,1.3-0.9,2.4-2.3,2.5c-0.1,0-0.1,0-0.2,0h-0.1c-0.3,0-0.6-0.1-0.8-0.1h-0.3
	c-0.2,0-0.4,0-0.6,0.1v-5.7c0-1,0-1.2-0.6-1.2V44.6z M136.3,50.2c0,0.2,0,0.4,0.1,0.6c0.2,0.4,0.6,0.6,1,0.6c0.9,0,1.6-0.8,1.5-1.7
	c0,0,0-0.1,0-0.1c0.1-0.9-0.5-1.7-1.4-1.8c-0.1,0-0.1,0-0.2,0c-0.4,0-0.8,0.1-1.1,0.3V50.2z"/>
<path class="st6" d="M142.5,50.4c0,0.2,0.1,0.4,0.2,0.6c0.1,0.3,0.4,0.4,0.7,0.4c0.4,0.1,0.8-0.2,0.8-0.6c0,0,0-0.1,0-0.1
	c0-0.4-0.2-0.5-1-1c-0.5-0.3-1-0.7-1-1.3c0-0.7,0.6-1.3,1.3-1.3c0,0,0.1,0,0.1,0c0.4,0,0.7,0.1,1.1,0.2l0.1,0.9l-0.3,0
	c-0.1-0.3-0.3-0.8-0.8-0.8c-0.3,0-0.6,0.2-0.7,0.6c0,0,0,0,0,0c0,0.4,0.4,0.7,0.7,0.9c0.7,0.5,1.2,0.7,1.2,1.5
	c0,0.7-0.6,1.3-1.4,1.3c0,0-0.1,0-0.1,0c-0.4,0-0.8-0.1-1.2-0.2l-0.1-1.1L142.5,50.4z"/>
<path class="st6" d="M146.2,47.6c0.4-0.1,0.8-0.3,1.2-0.6l0.2,0.1c0,0.3-0.1,0.6-0.1,0.9v2.7c0,0.6,0,0.7,0.7,0.7v0.4
	c-0.4,0-0.7-0.1-1.1-0.1s-0.7,0-1.1,0.1v-0.3c0.7,0,0.7-0.1,0.7-0.8v-2.1c0-0.5,0-0.7-0.6-0.7L146.2,47.6z M146.5,44.8
	c0-0.3,0.2-0.5,0.5-0.5s0.5,0.2,0.5,0.5c0,0,0,0,0,0c0,0.3-0.2,0.5-0.5,0.5c-0.1,0-0.3-0.1-0.4-0.1C146.6,45.1,146.5,45,146.5,44.8
	L146.5,44.8z"/>
<path class="st6" d="M149.2,47.5c0.5-0.3,0.9-0.9,1.1-1.5h0.3v1.4h1.4l-0.2,0.5h-1.3l0,2.2c0,0.3,0,0.6,0.1,0.9
	c0.1,0.2,0.4,0.3,0.7,0.3c0.2,0,0.4,0,0.6-0.1l0.1,0.3c-0.4,0.2-0.8,0.3-1.2,0.3c-0.3,0-0.6-0.1-0.8-0.3c-0.3-0.3-0.3-0.5-0.3-1.2
	l0-2.5h-0.6L149.2,47.5z"/>
<path class="st6" d="M153.4,49c0,0.1,0,0.2,0,0.3c0,0.3,0,0.6,0.2,0.9c0.3,0.6,0.9,1,1.5,1c0.4,0,0.8-0.1,1.1-0.4l0.2,0.2
	c-0.2,0.2-0.4,0.4-0.6,0.5c-0.3,0.2-0.7,0.3-1.1,0.3c-1.1,0-2-1-2-2.1c0,0,0-0.1,0-0.1c-0.1-1.2,0.8-2.3,2-2.4c0,0,0.1,0,0.1,0
	c0.7-0.1,1.4,0.5,1.5,1.2c0,0,0,0.1,0,0.1c0,0.5-0.2,0.5-0.5,0.5L153.4,49z M155.3,48.6c0.2,0,0.3,0,0.3-0.3c0-0.4-0.3-0.7-0.7-0.7
	c0,0-0.1,0-0.1,0c-0.6,0-1.1,0.4-1.2,1L155.3,48.6z"/>
<path class="st7" d="M37.5,9.1c0-0.1-0.1-0.2-0.2-0.2c-0.1,0-0.2,0.1-0.2,0.2V21c-0.5-0.3-1.5-0.4-2.6-0.2c-1.4,0.4-2.5,1.3-2.3,2
	c0.2,0.7,1.5,1,3,0.7c1.4-0.4,2.4-1.2,2.3-2V9.1z"/>
<path class="st7" d="M217.4,33.8C217.4,33.7,217.3,33.7,217.4,33.8l0-0.2l-7.8,1.8v2.1l0,0v7.7c-0.4-0.3-1.2-0.3-2.1-0.1
	c-1.2,0.3-2,1-1.8,1.6c0.2,0.6,1.2,0.8,2.4,0.5c1.1-0.3,2-1,1.8-1.6v-8.2l7.1-1.7v7.6c-0.4-0.3-1.2-0.3-2.1-0.1
	c-1.2,0.3-2,1-1.8,1.6c0.2,0.6,1.2,0.8,2.4,0.5c1.1-0.3,2-1,1.8-1.6V33.8z"/>
<path class="st7" d="M227.5,47.6c1.1-0.3,2-1,1.8-1.6V36c0,0,0,0,0,0v-0.2l-7.8,1.8v2.1h0v0.8l0,0v0.8l0,0v6.1
	c-0.4-0.3-1.2-0.3-2.1-0.1c-1.2,0.3-2,1-1.8,1.6c0.2,0.6,1.2,0.8,2.4,0.5c1.1-0.3,2-1,1.8-1.6v-6.6l7.1-1.7v6
	c-0.4-0.3-1.2-0.3-2.1-0.1c-1.2,0.3-2,1-1.8,1.6C225.3,47.7,226.3,47.9,227.5,47.6z M221.9,40.5v-0.8L229,38v0.8L221.9,40.5z"/>
<path class="st7" d="M32.7,5c-1.2-1.1-2.9-2.4-4.2-3.4v2.5c0,0,0,0,0,0v10.3C28,14,27,14,26,14.2c-1.4,0.4-2.5,1.3-2.3,2
	c0.2,0.7,1.5,1,3,0.7c1.4-0.4,2.4-1.2,2.3-2V4.4c0.7,0.5,2.1,1.5,2.9,2.2c1.3,1.2-0.8,2.6-1.7,3.3C34.4,8.1,34.2,6.3,32.7,5z"/>
<path class="st7" d="M21.6,7.8c-1.2-1.1-2.9-2.4-4.2-3.4v2.5c0,0,0,0,0,0v10.3c-0.3-0.3-0.9-0.5-1.6-0.5c-0.4,0-0.8,0-1.1,0.1
	c-0.7,0.2-1.3,0.5-1.7,0.9c-0.5,0.4-0.7,0.9-0.5,1.3c0.2,0.6,0.9,1,1.9,1c0.4,0,0.8,0,1.1-0.1c0.7-0.2,1.3-0.5,1.7-0.9
	c0.4-0.3,0.6-0.7,0.6-1c0,0,0-0.1,0-0.1V7.2c0.7,0.5,2.1,1.5,2.9,2.2c1.3,1.2-0.8,2.6-1.7,3.3C23.3,10.8,23.1,9.1,21.6,7.8z
	 M16.8,18.8c-0.4,0.4-0.9,0.8-1.5,0.9c-0.3,0.1-0.7,0.2-1,0.2c-0.8,0-1.3-0.3-1.4-0.8c-0.1-0.3,0.1-0.7,0.4-1.1
	c0.4-0.4,0.9-0.8,1.5-0.9c0.3-0.1,0.7-0.2,1-0.2c0.8,0,1.3,0.3,1.4,0.8C17.3,18,17.2,18.4,16.8,18.8z"/>
<path class="st7" d="M231.8,44.9v-4.5c0-0.1-0.1-0.2-0.2-0.2c-0.1,0-0.2,0.1-0.2,0.2v7.9c0,0.1,0,0.1,0.1,0.1c0,0,0.1,0,0.1,0
	c0,0,0.1,0,0.1,0c1.5-0.9,2.4-2.3,2-3.1C233.6,45,233.2,44.6,231.8,44.9z M231.8,47.7v-2.2c0,0,0,0,0.1,0c0.9-0.2,1.5-0.1,1.6,0.2
	C233.7,46.1,233,47,231.8,47.7z"/>
<g>
	<path class="st7" d="M240.8,39.4c-0.4-0.5-0.8-0.9-1.3-1.1c-0.5-0.3-1-0.4-1.6-0.4c-0.1,0-0.2,0-0.3,0c-0.3,0-0.5,0.1-0.8,0.1
		c0,0-0.1,0-0.2,0c0,0,0,0,0,0c0,0-0.1,0-0.1,0c-1.1,0.4-1.7,1.3-1.7,2.4c0,0,0,0.1,0,0.1c0,0.6,0.5,1.2,1.2,1.2
		c0.6,0,1.2-0.5,1.2-1.2c0-0.6-0.5-1.2-1.2-1.2c-0.3,0-0.6,0.1-0.8,0.3c0.2-0.6,0.7-1.1,1.4-1.4c0.1,0,0.1,0,0.2-0.1
		c0.2,0,0.4,0,0.7,0c1.5,0,2.4,0.7,2.9,2c0.7,2,0.4,4.8-2.1,7c-0.3,0.2-0.6,0.3-0.8,0.4c-0.1,0-0.1,0.1-0.1,0.2c0,0,0.1,0.1,0.1,0.1
		c0,0,0,0,0,0c0.2-0.1,0.5-0.2,0.7-0.4c0,0,0,0,0,0c0,0,0,0,0.1,0c2.2-1.3,4-4.4,3.2-6.8C241.4,40.3,241.1,39.8,240.8,39.4z"/>
	<path class="st7" d="M242.6,39.4c-0.2,0-0.4,0.2-0.4,0.4c0,0.2,0.2,0.4,0.4,0.4c0.2,0,0.4-0.2,0.4-0.4
		C243,39.6,242.8,39.4,242.6,39.4z"/>
	<path class="st7" d="M242.6,43.2c-0.2,0-0.4,0.2-0.4,0.4c0,0.2,0.2,0.4,0.4,0.4c0.2,0,0.4-0.2,0.4-0.4
		C243,43.4,242.8,43.2,242.6,43.2z"/>
</g>
<path class="st7" d="M9.4,15.7c-0.3-1.3-1.3-2.4-2.9-2.4l-0.3-2c1.7-1.9,1.5-2.5,1.5-3.6C7.6,6.5,7.5,6,6.9,5.1
	C6.3,5.8,4.8,6,5.4,9.1l0.2,1.1c-0.1,0.1-0.2,0.2-0.3,0.3c-2.3,2.5-2.9,4.6-2.5,6.3c0.7,3.1,3.8,2.8,4.2,2.5c0.3,2.1,0.7,3.6-0.4,4
	C6.4,23.4,5.5,24,5,22.4c-0.1-0.4-0.4-0.7-0.7-0.7c-0.3,0-0.5,0.1-0.7,0.3c-0.5,0.7,0,2.2,2,2.2c2.8,0,2.2-2.2,1.8-4.8
	C7.6,19.2,9.8,18.1,9.4,15.7z M7,5.9c0.6,1.5,0,2.8-1.1,4.1c0,0-0.1-0.6-0.1-1.2C5.7,7.7,6.2,7,7,5.9z M3.3,17.7
	c-0.9-2.4,1.1-4.4,2.5-5.9l0.3,1.6c-0.4,0.1-2,1-2,2.4c-0.2,1.6,1,2.8,2.3,2.3c-1.8,0-1.9-2.4-0.9-3.1c0.1-0.1,0.2-0.1,0.3-0.2
	c0,0,0,0,0,0c0,0,0,0,0,0c0.2-0.1,0.3-0.1,0.5-0.1L6.9,19C6.3,19.3,4.2,19.7,3.3,17.7z M7.3,18.9l-0.6-4.2C9,14.3,9.5,17.8,7.3,18.9
	z"/>
<path class="st7" d="M246.6,50V40c0-0.1-0.1-0.2-0.2-0.2c-0.1,0-0.2,0.1-0.2,0.2v9.6c-0.4-0.3-1.2-0.3-2.1-0.1c-1.2,0.3-2,1-1.8,1.6
	c0.2,0.6,1.2,0.8,2.4,0.5C245.9,51.3,246.7,50.6,246.6,50z M245.7,50.9c-0.3,0.3-0.6,0.5-1.1,0.7c-0.2,0.1-0.5,0.1-0.7,0.1
	c-0.6,0-1-0.2-1-0.6c0-0.2,0.1-0.5,0.3-0.8c0.3-0.3,0.6-0.5,1.1-0.7c0.2-0.1,0.5-0.1,0.7-0.1c0.6,0,1,0.2,1,0.6
	C246,50.3,245.9,50.6,245.7,50.9z"/>
<g>
	<path d="M41.7,18.5h2.5v16.5h10V37H41.7V18.5z"/>
	<path d="M54.7,24.7h2.4l3.9,9.6l3.9-9.6h2.4l-5.4,13c-0.4,1.1-0.9,1.8-1.3,2.3c-0.6,0.6-1.3,0.9-2.2,0.9c-1,0-1.7-0.1-2-0.4v-2.1
		c0.6,0.3,1.2,0.4,1.8,0.4c0.4,0,0.7-0.1,1-0.4c0.3-0.3,0.5-0.7,0.6-1.2L54.7,24.7z"/>
	<path d="M70.7,26.3c1.1-1.1,2.4-1.6,4-1.6c1.6,0,2.9,0.5,4,1.6c1.2,1.2,1.8,2.8,1.8,4.7c0,1.9-0.6,3.4-1.8,4.7
		c-1.1,1.1-2.4,1.6-4,1.6c-1.6,0-2.9-0.5-4-1.6c-1.2-1.2-1.8-2.8-1.8-4.7C68.9,29,69.5,27.5,70.7,26.3z M72.6,27.5
		c-0.9,0.9-1.3,2-1.3,3.5c0,1.4,0.4,2.6,1.2,3.4c0.6,0.6,1.4,1,2.3,1c0.9,0,1.6-0.3,2.3-1c0.8-0.8,1.2-1.9,1.2-3.4
		c0-1.4-0.4-2.6-1.3-3.5c-0.6-0.6-1.3-0.9-2.2-0.9C73.9,26.6,73.1,26.9,72.6,27.5z"/>
	<path d="M85.6,37h-2.2V24.9h2.2V27c1.3-1.6,2.7-2.4,4.1-2.4c1.4,0,2.6,0.4,3.5,1.3c0.6,0.6,0.9,1.3,0.9,2.1v9h-2.2v-8.3
		c0-0.6-0.2-1.2-0.6-1.6c-0.4-0.4-1-0.6-1.8-0.6c-0.7,0-1.4,0.4-2.2,1.1c-1.1,1.1-1.6,2.2-1.6,3.5V37z"/>
</g>
<g>
	<path d="M99.8,20.3h7.8c1.4,0,2.6,0.5,3.5,1.4c0.9,0.9,1.4,2.2,1.4,3.8c0,1.6-0.4,2.9-1.3,3.7c-0.9,0.8-2.1,1.3-3.6,1.3h-5.6V37
		h-2.3V20.3z M102.1,22.1v6.5h5.1c0.9,0,1.6-0.3,2.2-0.8c0.6-0.6,0.9-1.4,0.9-2.4c0-1.1-0.3-1.9-0.8-2.5c-0.6-0.6-1.3-0.9-2.3-0.9
		H102.1z"/>
	<path d="M115.4,20.4h2v2.5h-2V20.4z M115.4,26h2v11h-2V26z"/>
	<path d="M121.7,26.9c0.7-0.7,1.8-1.1,3.1-1.1c1.6,0,2.8,0.4,3.5,1.1c0.7,0.7,1,1.4,1,2.3v6.2c0,0.7,0.3,1.3,0.8,1.7h-2.4
		c-0.3-0.3-0.4-0.7-0.4-1.3c-1,1-2.2,1.5-3.7,1.5c-1.2,0-2.2-0.3-2.8-1c-0.6-0.6-0.9-1.3-0.9-2.1c0-0.9,0.3-1.7,0.9-2.3
		c0.7-0.7,1.6-1.1,2.7-1.3c0.8-0.1,1.5-0.3,2.1-0.5c0.8-0.2,1.4-0.4,1.8-0.6c0-0.5-0.2-1-0.6-1.4c-0.4-0.4-0.9-0.6-1.7-0.6
		c-0.9,0-1.6,0.2-2,0.6c-0.3,0.3-0.5,0.6-0.6,1.1h-2.2C120.6,28.4,121,27.6,121.7,26.9z M127.4,31.4c-0.4,0.1-0.8,0.2-1.1,0.3
		c-1.1,0.3-2,0.5-2.5,0.6c-0.5,0.1-0.9,0.3-1.2,0.6c-0.3,0.3-0.5,0.7-0.5,1.1c0,0.5,0.2,0.9,0.5,1.2c0.2,0.2,0.6,0.3,1.3,0.3
		c1.1,0,2-0.4,2.7-1.1c0.5-0.5,0.7-0.8,0.8-1V31.4z"/>
	<path d="M134.4,37h-2V26h2v2c1.2-1.4,2.4-2.2,3.7-2.2c1.3,0,2.4,0.4,3.1,1.2c0.5,0.5,0.8,1.1,0.8,1.9V37h-2v-7.5
		c0-0.6-0.2-1.1-0.6-1.5c-0.4-0.4-0.9-0.6-1.7-0.6c-0.7,0-1.3,0.3-2,1c-1,1-1.5,2-1.5,3.1V37z"/>
	<path d="M146.3,27.3c1-1,2.2-1.5,3.6-1.5c1.4,0,2.6,0.5,3.6,1.5c1.1,1.1,1.7,2.5,1.7,4.2c0,1.7-0.6,3.1-1.7,4.2
		c-1,1-2.2,1.5-3.6,1.5c-1.4,0-2.6-0.5-3.6-1.5c-1.1-1.1-1.7-2.5-1.7-4.2C144.6,29.8,145.2,28.4,146.3,27.3z M148,28.4
		c-0.8,0.8-1.2,1.8-1.2,3.1c0,1.3,0.4,2.3,1.1,3c0.6,0.6,1.3,0.9,2.1,0.9s1.5-0.3,2.1-0.9c0.7-0.7,1.1-1.7,1.1-3
		c0-1.3-0.4-2.4-1.2-3.1c-0.5-0.5-1.2-0.8-2-0.8S148.5,27.9,148,28.4z"/>
</g>
<g>
	<path d="M159.1,31.5l-0.6-1.9l5.4-0.2v-1.7l0.7,0.1l1.6-1.6h-3.9c-1.1,0.8-2.2,1.5-3.4,2l-1-1.8c2.1-0.9,4.1-2.2,5.9-3.9h-5.4v-1.5
		h4.4v-2.1h-3.3v-1.5h3.3v-3.2h1.5c0.5,0.1,0.5,0.3,0.1,0.6v2.6h2.7v1c0.7-1.1,1.3-2.3,1.9-3.6l1.4,1c0.5,0.3,0.5,0.4-0.1,0.6
		c-0.6,1.3-1.6,2.9-3.1,4.7h2.5v1.5h-3.7c-0.6,0.7-1.4,1.4-2.2,2.1h3.2l0.3-0.5l1.4,1.4c0.3,0.5,0.2,0.7-0.3,0.6l-3.1,2.2v1
		c1.3-0.1,3-0.4,5-0.7v1.6c-2.2,0.3-3.9,0.5-5,0.7v3.5c0,1-0.4,1.5-1.3,1.5H162l-0.4-1.8h1.9c0.3,0,0.4-0.1,0.4-0.4v-2.6
		c-1.3,0.1-2.7,0.2-4.1,0.3C159.5,32.1,159.3,32.2,159.1,31.5z M166.8,18.8h-2.3v2.1h0.7C165.9,20.1,166.4,19.4,166.8,18.8z
		 M173.3,19.3h6.7v1.8h-1.6c-0.3,3-1.2,5.9-2.5,8.6c1,1.5,2.5,2.9,4.5,3.9l-1.3,1.7c-1.8-1.2-3.2-2.5-4.3-4
		c-1.4,1.9-3.5,3.6-6.3,4.9l-1.2-1.9c2.8-1.3,4.9-2.8,6.2-4.6c-1.2-2.2-1.9-4.2-2.1-5.9l-1.4,2.3l-1.2-1.5c1.7-2.4,2.9-5.8,3.8-10.4
		l1.8,0.6c0.5,0.1,0.5,0.3-0.1,0.6C174,17.1,173.6,18.5,173.3,19.3z M176.7,21.1h-4.1c0.2,2.5,0.9,4.8,2.1,6.9
		C175.6,26.3,176.3,24,176.7,21.1z"/>
	<path d="M202.2,27.3c-0.5-0.4-1-0.8-1.5-1.2l-5.7,0.3v2.7h7.6v1.8H195v2.8h10v1.8H183v-1.8h10.1v-2.8h-7.5v-1.8h7.5v-2.6l-6.4,0.2
		c-0.3,0.5-0.5,0.5-0.7,0.1l-0.5-2h3.6l2.1-3.1h-4.5v-1.5h14.6v1.5h-3.6c2.1,1.4,4.1,2.8,5.9,4.1L202.2,27.3z M195.1,14.8v1.6h9.1
		v5.1h-1.9v-3.3h-16.6v3.3h-1.9v-5.1h9.1V14h2.1C195.7,14.1,195.7,14.4,195.1,14.8z M196.3,22.9l1.3-1.2h-3.9l-2.3,3.1l7.6-0.2
		C198.1,24,197.2,23.4,196.3,22.9z"/>
</g>
</svg>
